<svg id="Layer_1" data-name="Layer 1" xmlns="http://www.w3.org/2000/svg" viewBox="0 0 76.94 97.86"><defs><style>.cls-1{stroke-width: 2; fill:none;stroke:#DB4437;stroke-miterlimit:10;}</style></defs><title>clinic_logo</title><path class="cls-1" d="M220.17,294c-12-1.52-9.08,43.51.51,45.91,13.86,3.47,33.24-36.92,24.37-41.85" transform="translate(-170.85 -291.68)"/><circle class="cls-1" cx="219.95" cy="294" r="1.81" transform="translate(-252.92 211.1) rotate(-87.85)"/><circle class="cls-1" cx="244.98" cy="298.08" r="1.81" transform="translate(-232.91 240.05) rotate(-87.85)"/><path class="cls-1" d="M179.26,375c30.35,43,40.91-25.67,42.19-34.86" transform="translate(-170.85 -291.68)"/><circle class="cls-1" cx="177.31" cy="372.08" r="5.96" transform="matrix(0.16, -0.99, 0.99, 0.16, -389.32, 195.45)"/><circle class="cls-1" cx="177.31" cy="372.08" r="3.53" transform="translate(-229.11 -257.82) rotate(-9.38)"/><path class="cls-1" d="M236.54,329.9c-1.23,2-10.64,13.15-17,9.45-3.33-1.73-6.06-9.3-6.11-13.72C216.15,345.29,232.92,334.65,236.54,329.9Z" transform="translate(-170.85 -291.68)"/></svg>